<svg aria-hidden="true" style="position: absolute; width: 0; height: 0; overflow: hidden;" version="1.1" xmlns="http://www.w3.org/2000/svg" xmlns:xlink="http://www.w3.org/1999/xlink">
<defs>
<symbol id="icon-bootstrap" viewBox="0 0 32 32">
<path fill="#563d7c" style="fill: var(--color1, #563d7c)" d="M26.667 0h-21.333c-2.943 0.008-5.325 2.391-5.333 5.333v21.333c0 2.933 2.4 5.333 5.333 5.333h21.333c2.933 0 5.333-2.4 5.333-5.333v-21.333c0-2.933-2.4-5.333-5.333-5.333zM23.751 22.473c-0.267 0.643-0.689 1.209-1.231 1.645-0.56 0.453-1.269 0.827-2.143 1.093-0.872 0.271-1.909 0.407-3.111 0.407h-8.576v-18.667h9.069c1.677 0 3.021 0.377 4.027 1.147 1.013 0.773 1.517 1.925 1.517 3.48 0 0.94-0.229 1.747-0.691 2.413-0.459 0.663-1.12 1.181-1.973 1.541v0.061c1.139 0.24 2.020 0.78 2.6 1.62s0.877 1.901 0.877 3.183c0 0.717-0.139 1.4-0.4 2.037zM20.049 17.873c-0.547-0.5-1.315-0.744-2.307-0.744h-5.763v5.824h5.779c0.987 0 1.76-0.256 2.307-0.773 0.547-0.513 0.827-1.245 0.827-2.187-0.009-0.92-0.28-1.632-0.827-2.12zM19.249 14.109c0.528-0.448 0.787-1.089 0.787-1.925 0-0.939-0.233-1.605-0.707-1.987-0.469-0.38-1.147-0.577-2.037-0.577h-5.333v5.151h5.333c0.777 0 1.44-0.227 1.957-0.661z"></path>
</symbol>
<symbol id="icon-github" viewBox="0 0 32 32">
<path d="M16 0.396c-8.84 0-16 7.164-16 16 0 7.071 4.584 13.067 10.94 15.18 0.8 0.151 1.093-0.344 1.093-0.769 0-0.38-0.013-1.387-0.020-2.72-4.451 0.965-5.389-2.147-5.389-2.147-0.728-1.847-1.78-2.34-1.78-2.34-1.449-0.992 0.112-0.972 0.112-0.972 1.607 0.112 2.451 1.648 2.451 1.648 1.427 2.447 3.745 1.74 4.66 1.331 0.144-1.035 0.556-1.74 1.013-2.14-3.553-0.4-7.288-1.776-7.288-7.907 0-1.747 0.62-3.173 1.647-4.293-0.18-0.404-0.72-2.031 0.14-4.235 0 0 1.34-0.429 4.4 1.64 1.28-0.356 2.64-0.532 4-0.54 1.36 0.008 2.72 0.184 4 0.54 3.040-2.069 4.38-1.64 4.38-1.64 0.86 2.204 0.32 3.831 0.16 4.235 1.020 1.12 1.64 2.547 1.64 4.293 0 6.147-3.74 7.5-7.3 7.893 0.56 0.48 1.080 1.461 1.080 2.96 0 2.141-0.020 3.861-0.020 4.381 0 0.42 0.28 0.92 1.1 0.76 6.401-2.099 10.981-8.099 10.981-15.159 0-8.836-7.164-16-16-16z"></path>
</symbol>
<symbol id="icon-github1" viewBox="0 0 32 32">
<path d="M16 0.396c-8.84 0-16 7.164-16 16 0 7.071 4.584 13.067 10.94 15.18 0.8 0.151 1.093-0.344 1.093-0.769 0-0.38-0.013-1.387-0.020-2.72-4.451 0.965-5.389-2.147-5.389-2.147-0.728-1.847-1.78-2.34-1.78-2.34-1.449-0.992 0.112-0.972 0.112-0.972 1.607 0.112 2.451 1.648 2.451 1.648 1.427 2.447 3.745 1.74 4.66 1.331 0.144-1.035 0.556-1.74 1.013-2.14-3.553-0.4-7.288-1.776-7.288-7.907 0-1.747 0.62-3.173 1.647-4.293-0.18-0.404-0.72-2.031 0.14-4.235 0 0 1.34-0.429 4.4 1.64 1.28-0.356 2.64-0.532 4-0.54 1.36 0.008 2.72 0.184 4 0.54 3.040-2.069 4.38-1.64 4.38-1.64 0.86 2.204 0.32 3.831 0.16 4.235 1.020 1.12 1.64 2.547 1.64 4.293 0 6.147-3.74 7.5-7.3 7.893 0.56 0.48 1.080 1.461 1.080 2.96 0 2.141-0.020 3.861-0.020 4.381 0 0.42 0.28 0.92 1.1 0.76 6.401-2.099 10.981-8.099 10.981-15.159 0-8.836-7.164-16-16-16z"></path>
</symbol>
<symbol id="icon-html5" viewBox="0 0 32 32">
<path fill="#e34f26" style="fill: var(--color3, #e34f26)" d="M2 0h28l-2.547 28.751-11.484 3.249-11.419-3.251zM11.375 13l-0.309-3.624 13.412 0.004 0.307-3.496-17.568-0.004 0.931 10.68h12.168l-0.435 4.568-3.88 1.072-3.94-1.080-0.251-2.813h-3.479l0.44 5.561 7.229 1.933 7.172-1.924 0.992-10.876z"></path>
</symbol>
<symbol id="icon-css3" viewBox="0 0 32 32">
<path fill="#1572b6" style="fill: var(--color4, #1572b6)" d="M2 0h28l-2.547 28.751-11.484 3.249-11.42-3.251zM24.787 5.884l-17.573-0.004 0.284 3.496 13.5 0.003-0.34 3.621h-8.853l0.32 3.431h8.243l-0.488 4.697-3.88 1.072-3.941-1.080-0.251-2.813h-3.48l0.387 5.14 7.287 2.271 7.164-2.040z"></path>
</symbol>
<symbol id="icon-java" viewBox="0 0 32 32">
<path fill="#007396" style="fill: var(--color5, #007396)" d="M11.801 24.747c0 0-1.223 0.712 0.871 0.952 2.536 0.291 3.832 0.249 6.625-0.281 0 0 0.736 0.461 1.761 0.861-6.265 2.684-14.177-0.157-9.257-1.532zM11.035 21.244c0 0-1.371 1.015 0.723 1.232 2.709 0.279 4.848 0.303 8.551-0.411 0 0 0.512 0.519 1.316 0.803-7.572 2.215-16.009 0.173-10.589-1.624zM17.488 15.3c1.544 1.777-0.405 3.377-0.405 3.377s3.919-2.024 2.119-4.557c-1.681-2.363-2.971-3.536 4.009-7.584 0-0.001-10.955 2.735-5.723 8.764zM25.773 27.339c0 0 0.905 0.745-0.996 1.321-3.616 1.096-15.051 1.425-18.225 0.044-1.141-0.497 1-1.187 1.672-1.331 0.703-0.152 1.104-0.124 1.104-0.124-1.271-0.895-8.208 1.756-3.524 2.516 12.773 2.071 23.283-0.933 19.969-2.427zM12.389 17.613c0 0-5.816 1.381-2.059 1.883 1.585 0.212 4.748 0.164 7.693-0.083 2.408-0.203 4.824-0.636 4.824-0.636s-0.849 0.363-1.464 0.783c-5.905 1.553-17.315 0.831-14.029-0.757 2.776-1.341 5.035-1.189 5.035-1.189zM22.821 23.445c6.004-3.12 3.228-6.119 1.291-5.713-0.473 0.099-0.687 0.184-0.687 0.184s0.176-0.276 0.513-0.396c3.833-1.348 6.781 3.975-1.237 6.083 0-0.001 0.093-0.083 0.12-0.157zM19.201 0c0 0 3.325 3.325-3.153 8.44-5.195 4.103-1.184 6.443-0.001 9.115-3.032-2.737-5.257-5.144-3.765-7.385 2.192-3.292 8.263-4.887 6.92-10.169zM12.979 31.899c5.763 0.369 14.612-0.204 14.821-2.931 0 0-0.403 1.033-4.763 1.855-4.917 0.925-10.985 0.817-14.583 0.224 0-0.001 0.737 0.609 4.524 0.852z"></path>
</symbol>
<symbol id="icon-linkedin" viewBox="0 0 32 32">
<path d="M29 0h-26c-1.65 0-3 1.35-3 3v26c0 1.65 1.35 3 3 3h26c1.65 0 3-1.35 3-3v-26c0-1.65-1.35-3-3-3zM12 26h-4v-14h4v14zM10 10c-1.106 0-2-0.894-2-2s0.894-2 2-2c1.106 0 2 0.894 2 2s-0.894 2-2 2zM26 26h-4v-8c0-1.106-0.894-2-2-2s-2 0.894-2 2v8h-4v-14h4v2.481c0.825-1.131 2.087-2.481 3.5-2.481 2.488 0 4.5 2.238 4.5 5v9z"></path>
</symbol>
<symbol id="icon-javascript" viewBox="0 0 32 32">
<path fill="#0065bd" style="fill: var(--color1, #0065bd)" d="M0 0h32v32h-32v-32z"></path>
<path fill="#fff" style="fill: var(--color2, #fff)" d="M8.416 26.74l2.446-1.482c0.473 0.842 0.903 1.543 1.929 1.543 0.991 0 1.613-0.386 1.613-1.894v-10.214h3.007v10.266c0 3.113-1.824 4.532-4.489 4.532-2.402 0-3.796-1.245-4.506-2.753z"></path>
<path fill="#fff" style="fill: var(--color2, #fff)" d="M19.051 26.416l2.446-1.42c0.649 1.052 1.482 1.824 2.963 1.824 1.245 0 2.043-0.622 2.043-1.482 0-1.034-0.816-1.394-2.192-1.999l-0.754-0.324c-2.166-0.921-3.612-2.087-3.612-4.532 0-2.253 1.718-3.971 4.401-3.971 1.911 0 3.288 0.666 4.278 2.403l-2.341 1.499c-0.517-0.921-1.069-1.289-1.929-1.289-0.877 0-1.438 0.561-1.438 1.289 0 0.903 0.561 1.271 1.85 1.824l0.754 0.324c2.56 1.096 3.997 2.209 3.997 4.726 0 2.709-2.131 4.191-4.98 4.191-2.806 0.016-4.612-1.317-5.488-3.061z"></path>
</symbol>
<symbol id="icon-sass" viewBox="0 0 43 32">
<path d="M36.717 18.383c-1.492 0.008-2.783 0.367-3.867 0.9-0.4-0.792-0.8-1.483-0.867-2-0.075-0.6-0.167-0.967-0.075-1.683s0.508-1.733 0.508-1.817c-0.008-0.075-0.092-0.442-0.95-0.45s-1.6 0.167-1.683 0.392-0.25 0.742-0.358 1.275c-0.15 0.783-1.717 3.558-2.608 5.017-0.292-0.567-0.542-1.067-0.592-1.467-0.075-0.6-0.167-0.967-0.075-1.683s0.508-1.733 0.508-1.817c-0.008-0.075-0.092-0.442-0.95-0.45s-1.6 0.167-1.683 0.392-0.175 0.758-0.358 1.275c-0.175 0.517-2.258 5.15-2.8 6.358-0.275 0.617-0.517 1.108-0.692 1.442s-0.008 0.025-0.025 0.058c-0.15 0.283-0.233 0.442-0.233 0.442v0.008c-0.117 0.208-0.242 0.408-0.3 0.408-0.042 0-0.125-0.558 0.017-1.325 0.308-1.608 1.058-4.117 1.050-4.208 0-0.042 0.142-0.483-0.483-0.708-0.608-0.225-0.825 0.15-0.875 0.15s-0.092 0.133-0.092 0.133 0.675-2.825-1.292-2.825c-1.233 0-2.933 1.342-3.775 2.567-0.533 0.292-1.667 0.908-2.867 1.567-0.458 0.25-0.933 0.517-1.383 0.758l-0.092-0.1c-2.383-2.542-6.792-4.342-6.608-7.758 0.067-1.242 0.5-4.517 8.467-8.483 6.525-3.25 11.75-2.358 12.658-0.375 1.292 2.833-2.792 8.1-9.575 8.858-2.583 0.292-3.942-0.708-4.283-1.083-0.358-0.392-0.408-0.408-0.542-0.333-0.217 0.117-0.083 0.467 0 0.675 0.2 0.525 1.033 1.458 2.45 1.925 1.242 0.408 4.275 0.633 7.942-0.783 4.108-1.592 7.317-6.008 6.375-9.7-0.958-3.758-7.192-4.992-13.083-2.9-3.508 1.25-7.308 3.2-10.042 5.758-3.25 3.033-3.767 5.683-3.55 6.783 0.758 3.925 6.167 6.483 8.333 8.375-0.108 0.058-0.208 0.117-0.3 0.167-1.083 0.533-5.208 2.692-6.242 4.975-1.167 2.583 0.183 4.442 1.083 4.692 2.783 0.775 5.633-0.617 7.175-2.908 1.533-2.292 1.35-5.267 0.642-6.625l-0.025-0.050 0.85-0.5c0.55-0.325 1.092-0.625 1.567-0.883-0.267 0.725-0.458 1.583-0.558 2.833-0.117 1.467 0.483 3.367 1.275 4.117 0.35 0.325 0.767 0.333 1.025 0.333 0.917 0 1.333-0.758 1.792-1.667 0.567-1.108 1.067-2.392 1.067-2.392s-0.625 3.475 1.083 3.475c0.625 0 1.25-0.808 1.533-1.225v0.008s0.017-0.025 0.050-0.083c0.028-0.040 0.061-0.092 0.092-0.145l0.008-0.014v-0.017c0.25-0.433 0.808-1.425 1.642-3.067 1.075-2.117 2.108-4.767 2.108-4.767s0.1 0.65 0.408 1.717c0.183 0.633 0.583 1.325 0.892 2-0.25 0.35-0.4 0.55-0.4 0.55l0.008 0.008c-0.2 0.267-0.425 0.55-0.658 0.833-0.85 1.017-1.867 2.175-2 2.508-0.158 0.392-0.125 0.683 0.183 0.917 0.225 0.167 0.625 0.2 1.050 0.167 0.767-0.050 1.3-0.242 1.567-0.358 0.417-0.15 0.892-0.375 1.35-0.708 0.833-0.617 1.342-1.492 1.292-2.658-0.025-0.642-0.233-1.275-0.492-1.875 0.075-0.108 0.15-0.217 0.225-0.333 1.317-1.925 2.333-4.042 2.333-4.042s0.1 0.65 0.408 1.717c0.158 0.542 0.475 1.133 0.758 1.717-1.233 1.008-2.008 2.175-2.275 2.942-0.492 1.417-0.108 2.058 0.617 2.208 0.325 0.067 0.792-0.083 1.142-0.233 0.433-0.142 0.958-0.383 1.442-0.742 0.833-0.617 1.633-1.475 1.592-2.633-0.025-0.533-0.167-1.058-0.358-1.558 1.050-0.433 2.408-0.683 4.133-0.475 3.708 0.433 4.442 2.75 4.3 3.717s-0.917 1.5-1.175 1.667c-0.258 0.158-0.342 0.217-0.317 0.333 0.033 0.175 0.15 0.167 0.375 0.133 0.308-0.050 1.95-0.792 2.017-2.575 0.1-2.292-2.075-4.792-5.933-4.767zM8.117 28.025c-1.225 1.342-2.95 1.85-3.683 1.417-0.792-0.458-0.483-2.433 1.025-3.858 0.917-0.867 2.108-1.667 2.892-2.158 0.175-0.108 0.442-0.267 0.758-0.458 0.050-0.033 0.083-0.050 0.083-0.050 0.058-0.033 0.125-0.075 0.192-0.117 0.558 2.033 0.025 3.817-1.267 5.225zM17.075 21.933c-0.425 1.042-1.325 3.717-1.867 3.567-0.467-0.125-0.75-2.15-0.092-4.15 0.333-1.008 1.042-2.208 1.458-2.675 0.675-0.75 1.408-1 1.592-0.692 0.217 0.4-0.825 3.3-1.092 3.95zM24.467 25.467c-0.183 0.092-0.35 0.158-0.425 0.108-0.058-0.033 0.075-0.158 0.075-0.158s0.925-0.992 1.292-1.45c0.208-0.267 0.458-0.575 0.725-0.925v0.1c0 1.2-1.15 2-1.667 2.325zM30.167 24.167c-0.133-0.1-0.117-0.408 0.333-1.375 0.175-0.383 0.575-1.025 1.267-1.633 0.083 0.25 0.133 0.492 0.125 0.717-0.008 1.5-1.075 2.058-1.725 2.292z"></path>
</symbol>
<symbol id="icon-redux" viewBox="0 0 32 32">
<path fill="#764abc" style="fill: var(--color1, #764abc)" d="M22.177 22.005c1.159-0.1 2.057-1.12 1.999-2.339-0.061-1.219-1.060-2.197-2.277-2.197h-0.081c-1.257 0.041-2.237 1.099-2.197 2.359 0.040 0.639 0.301 1.159 0.659 1.537-1.397 2.717-3.495 4.715-6.672 6.393-2.137 1.117-4.395 1.539-6.592 1.239-1.837-0.259-3.275-1.080-4.155-2.397-1.317-1.999-1.437-4.155-0.34-6.312 0.801-1.559 1.999-2.697 2.799-3.257-0.2-0.519-0.44-1.397-0.56-2.056-5.915 4.236-5.313 10.028-3.516 12.765 1.339 1.997 4.076 3.275 7.072 3.275 0.799 0 1.639-0.059 2.457-0.259 5.195-0.999 9.129-4.115 11.387-8.709zM29.308 17.011c-3.095-3.636-7.651-5.633-12.845-5.633h-0.68c-0.337-0.739-1.116-1.199-1.996-1.199h-0.060c-1.257 0-2.237 1.080-2.196 2.337 0.040 1.197 1.059 2.197 2.277 2.197h0.099c0.9-0.040 1.679-0.6 1.997-1.399h0.74c3.079 0 5.993 0.899 8.651 2.656 2.036 1.339 3.496 3.096 4.315 5.195 0.717 1.717 0.679 3.396-0.060 4.796-1.139 2.196-3.057 3.356-5.593 3.356-1.599 0-3.156-0.5-3.956-0.859-0.479 0.397-1.279 1.057-1.859 1.457 1.757 0.797 3.536 1.257 5.253 1.257 3.896 0 6.791-2.196 7.891-4.315 1.197-2.397 1.099-6.432-1.959-9.888zM8.653 22.723c0.039 1.199 1.057 2.197 2.277 2.197h0.080c1.279-0.040 2.257-1.097 2.197-2.357 0-1.199-1.039-2.196-2.257-2.196h-0.081c-0.080 0-0.199 0-0.3 0.039-1.657-2.797-2.357-5.795-2.096-9.028 0.159-2.437 0.959-4.556 2.396-6.313 1.199-1.499 3.456-2.239 4.995-2.277 4.315-0.081 6.113 5.295 6.252 7.432l1.997 0.599c-0.46-6.552-4.533-9.989-8.429-9.989-3.656 0-7.031 2.657-8.391 6.553-1.857 5.195-0.639 10.188 1.639 14.184-0.199 0.26-0.319 0.719-0.279 1.157z"></path>
</symbol>
<symbol id="icon-react" viewBox="0 0 32 32">
<path fill="#61dafb" style="fill: var(--color2, #61dafb)" d="M16 13.148c-1.575 0-2.852 1.277-2.852 2.852s1.277 2.852 2.852 2.852v0c1.575 0 2.852-1.277 2.852-2.852s-1.277-2.852-2.852-2.852v0zM8.011 21.673l-0.629-0.16c-4.691-1.185-7.381-3.197-7.381-5.519s2.691-4.333 7.381-5.519l0.629-0.159 0.177 0.624c0.545 1.86 1.163 3.443 1.899 4.957l-0.082-0.186 0.135 0.284-0.135 0.284c-0.656 1.329-1.275 2.912-1.761 4.551l-0.056 0.22zM7.089 11.933c-3.565 1.001-5.753 2.533-5.753 4.061 0 1.527 2.188 3.059 5.753 4.061 0.512-1.62 1.046-2.965 1.662-4.263l-0.086 0.202c-0.531-1.098-1.066-2.443-1.511-3.828l-0.065-0.234zM23.989 21.673l-0.177-0.625c-0.544-1.859-1.162-3.441-1.9-4.954l0.081 0.184-0.135-0.284 0.135-0.284c0.656-1.329 1.275-2.911 1.762-4.55l0.056-0.221 0.177-0.624 0.631 0.159c4.689 1.185 7.38 3.197 7.38 5.52s-2.691 4.333-7.38 5.519zM23.335 15.995c0.64 1.385 1.169 2.747 1.576 4.061 3.567-1.003 5.753-2.535 5.753-4.061 0-1.528-2.188-3.059-5.753-4.061-0.511 1.619-1.045 2.963-1.662 4.262l0.086-0.2zM7.080 11.927l-0.177-0.623c-1.319-4.648-0.919-7.979 1.097-9.141 1.977-1.141 5.152 0.207 8.479 3.621l0.453 0.465-0.453 0.465c-1.146 1.19-2.207 2.482-3.162 3.853l-0.068 0.103-0.18 0.257-0.313 0.027c-1.875 0.151-3.596 0.439-5.264 0.86l0.218-0.047zM9.608 3.087c-0.357 0-0.673 0.077-0.94 0.231-1.325 0.764-1.56 3.42-0.647 7.004 1.21-0.285 2.681-0.521 4.18-0.658l0.131-0.010c0.894-1.264 1.792-2.37 2.756-3.414l-0.020 0.022c-2.080-2.025-4.049-3.175-5.46-3.175zM22.393 30.236c-0.001 0-0.001 0 0 0-1.9 0-4.34-1.431-6.872-4.031l-0.453-0.465 0.453-0.465c1.146-1.19 2.206-2.482 3.16-3.854l0.068-0.103 0.18-0.257 0.312-0.027c1.875-0.15 3.597-0.438 5.267-0.858l-0.218 0.046 0.629-0.159 0.179 0.624c1.316 4.645 0.917 7.977-1.099 9.139-0.449 0.259-0.988 0.411-1.562 0.411-0.016 0-0.031-0-0.047-0l0.002 0zM16.932 25.728c2.080 2.025 4.049 3.175 5.46 3.175h0.001c0.356 0 0.673-0.077 0.939-0.231 1.325-0.764 1.561-3.421 0.647-7.005-1.212 0.286-2.682 0.522-4.182 0.658l-0.13 0.010c-0.893 1.265-1.791 2.371-2.755 3.416l0.020-0.022zM24.92 11.927l-0.629-0.159c-1.453-0.376-3.175-0.664-4.939-0.806l-0.111-0.007-0.312-0.027-0.18-0.257c-1.021-1.474-2.082-2.766-3.237-3.966l0.009 0.010-0.453-0.465 0.453-0.465c3.325-3.413 6.499-4.761 8.479-3.621 2.016 1.163 2.416 4.493 1.099 9.14zM19.667 9.653c1.523 0.139 2.969 0.364 4.312 0.668 0.915-3.584 0.679-6.24-0.647-7.004-1.317-0.761-3.793 0.405-6.4 2.944 0.943 1.022 1.841 2.128 2.666 3.289l0.069 0.103zM9.608 30.236c-0.014 0-0.030 0-0.046 0-0.574 0-1.113-0.152-1.577-0.419l0.015 0.008c-2.016-1.161-2.416-4.492-1.097-9.139l0.176-0.624 0.629 0.159c1.54 0.388 3.239 0.661 5.047 0.812l0.313 0.027 0.179 0.257c1.022 1.475 2.083 2.767 3.239 3.967l-0.010-0.010 0.453 0.465-0.453 0.465c-2.531 2.6-4.971 4.031-6.868 4.031zM8.021 21.667c-0.915 3.584-0.679 6.241 0.647 7.005 1.316 0.751 3.791-0.407 6.4-2.944-0.943-1.022-1.841-2.129-2.667-3.29l-0.069-0.103c-1.629-0.146-3.099-0.382-4.534-0.711l0.224 0.043zM16 22.504c-1.097 0-2.225-0.048-3.355-0.141l-0.313-0.027-0.18-0.257c-0.544-0.768-1.139-1.691-1.697-2.639l-0.103-0.19c-0.452-0.758-0.971-1.732-1.45-2.728l-0.105-0.243-0.133-0.284 0.133-0.284c0.584-1.239 1.102-2.212 1.658-3.161l-0.103 0.191c0.552-0.955 1.159-1.907 1.8-2.829l0.18-0.257 0.313-0.027c1.005-0.090 2.174-0.142 3.355-0.142s2.35 0.052 3.505 0.153l-0.15-0.011 0.312 0.027 0.179 0.257c1.177 1.666 2.294 3.567 3.252 5.56l0.104 0.24 0.135 0.284-0.135 0.284c-1.058 2.232-2.176 4.133-3.439 5.925l0.083-0.125-0.179 0.257-0.312 0.027c-1.129 0.093-2.259 0.141-3.356 0.141zM13.071 21.059c1.973 0.148 3.885 0.148 5.86 0 1.004-1.445 1.978-3.104 2.827-4.836l0.101-0.228c-0.947-1.958-1.922-3.617-3.012-5.19l0.083 0.126c-0.877-0.071-1.898-0.111-2.929-0.111s-2.052 0.040-3.063 0.119l0.134-0.008c-1.008 1.447-1.983 3.106-2.83 4.84l-0.099 0.224c0.951 1.96 1.926 3.619 3.014 5.193l-0.085-0.13z"></path>
</symbol>
<symbol id="icon-resume" viewBox="0 0 32 32">
<path d="M1.067 1.067h20.8v3.733h1.067v-4.267c0-0.32-0.213-0.533-0.533-0.533h-21.867c-0.32 0-0.533 0.213-0.533 0.533v30.933c0 0.32 0.213 0.533 0.533 0.533h17.067v-1.067h-16.533v-29.867z"></path>
<path d="M23.307 11.36l-1.493-3.52c-0.053-0.213-0.267-0.32-0.48-0.32s-0.373 0.107-0.48 0.32l-1.493 3.52c-0.107 0.107-0.16 0.213-0.16 0.373v19.733c0 0.32 0.213 0.533 0.533 0.533h3.2c0.32 0 0.533-0.213 0.533-0.533v-19.733c0-0.16-0.053-0.32-0.16-0.373zM20.267 12.267h2.133v15.467h-2.133v-15.467zM21.333 9.333l0.8 1.867h-1.6l0.8-1.867zM22.4 30.933h-2.133v-2.133h2.133v2.133z"></path>
<path d="M31.467 20.267h-5.867c-0.32 0-0.533 0.213-0.533 0.533v10.667c0 0.32 0.213 0.533 0.533 0.533h5.867c0.32 0 0.533-0.213 0.533-0.533v-10.667c0-0.32-0.213-0.533-0.533-0.533zM30.933 21.333v2.667h-4.8v-2.667h4.8zM26.133 30.933v-5.867h4.8v5.867h-4.8z"></path>
<path d="M14.4 5.867c0-1.76-1.44-3.2-3.2-3.2s-3.2 1.44-3.2 3.2 1.44 3.2 3.2 3.2 3.2-1.44 3.2-3.2zM9.067 5.867c0-1.173 0.96-2.133 2.133-2.133s2.133 0.96 2.133 2.133-0.96 2.133-2.133 2.133-2.133-0.96-2.133-2.133z"></path>
<path d="M8 10.667h6.4v1.067h-6.4v-1.067z"></path>
<path d="M8 13.333h6.4v1.067h-6.4v-1.067z"></path>
<path d="M3.2 16.533h8v1.067h-8v-1.067z"></path>
<path d="M3.2 19.2h13.867v1.067h-13.867v-1.067z"></path>
<path d="M3.2 21.867h13.867v1.067h-13.867v-1.067z"></path>
<path d="M3.2 24.533h4.267v1.067h-4.267v-1.067z"></path>
<path d="M3.2 27.2h5.867v1.067h-5.867v-1.067z"></path>
<path d="M11.2 24.533h4.267v1.067h-4.267v-1.067z"></path>
<path d="M11.2 27.2h5.867v1.067h-5.867v-1.067z"></path>
</symbol>
<symbol id="icon-mongodb" viewBox="0 0 32 32">
<path fill="#94795d" style="fill: var(--color4, #94795d)" d="M21.815 25.035c0.042-0.081 0.083-0.153 0.117-0.227 0.022-0.047 0.055-0.057 0.102-0.056 0.283 0.008 0.567 0.017 0.85 0.020 0.241 0.003 0.482-0.002 0.723-0.005 0.271-0.003 0.543-0.017 0.814-0.010 0.361 0.011 0.713 0.081 1.040 0.242 0.39 0.192 0.686 0.485 0.887 0.871 0.128 0.246 0.203 0.508 0.233 0.785 0.043 0.402 0.015 0.795-0.113 1.179-0.158 0.477-0.458 0.841-0.875 1.114-0.321 0.21-0.672 0.334-1.050 0.405-0.399 0.075-0.799 0.051-1.2 0.052-0.439 0.002-0.878-0.008-1.317-0.013-0.077-0.001-0.088-0.015-0.067-0.088l0.019-0.067c0.043-0.134 0.066-0.14 0.202-0.163 0.095-0.015 0.192-0.051 0.272-0.103 0.046-0.030 0.065-0.11 0.083-0.171 0.015-0.053 0.016-0.112 0.017-0.169 0.006-0.856 0.013-1.712 0.016-2.568 0.001-0.216-0.004-0.433-0.016-0.649-0.009-0.151-0.089-0.255-0.269-0.291-0.14-0.028-0.281-0.049-0.422-0.074zM25.834 27.108c-0.019-0.171-0.028-0.343-0.059-0.511-0.073-0.403-0.25-0.755-0.559-1.030-0.501-0.445-1.105-0.513-1.737-0.46-0.144 0.012-0.175 0.061-0.177 0.209-0.003 0.21-0.007 0.42-0.007 0.63-0.001 0.666-0.001 1.332 0 1.998 0 0.189 0.002 0.379 0.008 0.568 0.006 0.194 0.076 0.357 0.266 0.432 0.299 0.118 0.613 0.132 0.927 0.084 0.501-0.077 0.851-0.369 1.086-0.806 0.186-0.347 0.238-0.726 0.254-1.115zM27.051 29.376c-0.006-0.104 0.037-0.189 0.089-0.268 0.014-0.021 0.063-0.020 0.097-0.027l0.287-0.057c0.101-0.021 0.154-0.090 0.169-0.189 0.009-0.066 0.018-0.132 0.019-0.198 0.006-0.524 0.012-1.049 0.015-1.573s0-1.050 0-1.575l-0.002-0.1c-0.010-0.169-0.092-0.256-0.259-0.281l-0.363-0.055c-0.045-0.006-0.061-0.027-0.045-0.067 0.028-0.068 0.055-0.138 0.094-0.199 0.015-0.023 0.064-0.031 0.098-0.030 0.174 0.003 0.347 0.015 0.52 0.015l1.51-0.009c0.291-0 0.572 0.050 0.833 0.19 0.287 0.153 0.448 0.39 0.494 0.712 0.048 0.339-0.055 0.624-0.302 0.851-0.102 0.093-0.233 0.154-0.352 0.23l-0.038 0.024c0.11 0.040 0.214 0.075 0.315 0.116 0.297 0.122 0.533 0.312 0.658 0.616 0.099 0.24 0.099 0.49 0.040 0.738-0.091 0.389-0.347 0.648-0.68 0.843-0.313 0.184-0.651 0.291-1.012 0.309-0.332 0.017-0.666 0.011-1 0.014l-0.193 0.001c-0.321-0.007-0.642-0.015-0.963-0.024zM28.435 27.854h0.003c0 0.165-0.002 0.329 0.001 0.494 0.002 0.107-0.002 0.216 0.021 0.319 0.035 0.153 0.105 0.291 0.276 0.335 0.232 0.060 0.47 0.072 0.704 0.031 0.294-0.051 0.529-0.199 0.658-0.479 0.096-0.208 0.11-0.429 0.077-0.654-0.044-0.297-0.201-0.512-0.463-0.654-0.172-0.093-0.355-0.149-0.551-0.157-0.219-0.008-0.438-0.009-0.657-0.015-0.061-0.002-0.070 0.029-0.070 0.080 0.001 0.233 0 0.467 0 0.701zM28.901 26.735c0.12-0.006 0.255-0.008 0.39-0.021 0.258-0.026 0.44-0.155 0.535-0.402 0.048-0.125 0.046-0.254 0.047-0.384 0.004-0.339-0.194-0.617-0.517-0.732-0.249-0.089-0.505-0.090-0.763-0.083-0.105 0.003-0.151 0.049-0.153 0.154l-0.015 1.372c-0.001 0.055 0.023 0.078 0.076 0.080z"></path>
<path fill="#50382b" style="fill: var(--color5, #50382b)" d="M2.636 29.112l-0.018 0.236c-0.17 0-0.327-0.001-0.483 0-0.295 0.003-0.591 0.008-0.886 0.012l-0.028 0.002c-0.042-0.005-0.119-0.005-0.121-0.017-0.012-0.070-0.008-0.144-0.005-0.217 0-0.008 0.029-0.019 0.046-0.023l0.23-0.051c0.143-0.037 0.194-0.099 0.2-0.247 0.008-0.167 0.016-0.334 0.016-0.5 0.002-0.41-0-0.82 0.002-1.231 0-0.096-0.033-0.168-0.123-0.206-0.107-0.047-0.214-0.093-0.321-0.137-0.051-0.020-0.117-0.032-0.111-0.1 0.006-0.070 0.070-0.088 0.131-0.102 0.25-0.057 0.501-0.113 0.751-0.174 0.081-0.020 0.158-0.053 0.254-0.087 0.005 0.052 0.014 0.102 0.013 0.151l-0.015 0.235c-0 0.026 0.014 0.062 0.033 0.077 0.012 0.009 0.052-0.008 0.072-0.023 0.213-0.163 0.44-0.303 0.697-0.384 0.399-0.127 0.742-0.009 0.982 0.335 0.085 0.121 0.085 0.121 0.202 0.037 0.201-0.146 0.412-0.275 0.647-0.36 0.517-0.187 1.014 0.050 1.194 0.571 0.066 0.189 0.090 0.384 0.090 0.584l-0.005 1.325c-0 0.109 0.036 0.172 0.14 0.206 0.117 0.038 0.238 0.064 0.369 0.099l-0.030 0.228c-0.149 0-0.287-0.001-0.425 0-0.336 0.003-0.672 0.005-1.008 0.012-0.059 0.002-0.074-0.013-0.077-0.068-0.010-0.175-0.011-0.175 0.154-0.215l0.056-0.014c0.161-0.044 0.215-0.093 0.216-0.257 0.004-0.47 0.013-0.94-0.010-1.409-0.025-0.486-0.41-0.745-0.881-0.62-0.154 0.041-0.293 0.111-0.423 0.203-0.044 0.031-0.052 0.067-0.048 0.122 0.013 0.207 0.021 0.414 0.023 0.622 0.003 0.363-0.002 0.726 0 1.088 0 0.147 0.051 0.203 0.196 0.237l0.256 0.059c0.003 0.069 0.006 0.138 0.003 0.207-0.002 0.043-0.035 0.047-0.073 0.046-0.21-0.005-0.42-0.012-0.63-0.012-0.255 0-0.51 0.008-0.765 0.012h-0.060c0-0.073-0.003-0.143 0.002-0.213 0.001-0.017 0.031-0.040 0.051-0.046l0.252-0.053c0.107-0.026 0.158-0.081 0.164-0.189 0.029-0.503 0.049-1.005 0.002-1.508-0.009-0.098-0.041-0.197-0.082-0.286-0.129-0.285-0.418-0.403-0.753-0.318-0.159 0.041-0.302 0.113-0.438 0.205-0.064 0.044-0.095 0.101-0.095 0.174 0 0.501 0.002 1.003 0.003 1.503l0.003 0.193c0.003 0.135 0.060 0.206 0.194 0.235 0.086 0.020 0.173 0.033 0.271 0.051z"></path>
<path fill="#4f382b" style="fill: var(--color6, #4f382b)" d="M17.75 26.321c0.039 0.189 0.038 0.358-0.101 0.486-0.137 0.128-0.311 0.085-0.481 0.056 0.016 0.090 0.033 0.166 0.042 0.242 0.062 0.572-0.184 0.997-0.715 1.24-0.201 0.091-0.413 0.125-0.63 0.143-0.108 0.009-0.203 0.091-0.213 0.18-0.011 0.090 0.046 0.183 0.159 0.209 0.133 0.032 0.272 0.041 0.409 0.056 0.294 0.034 0.59 0.049 0.88 0.101 0.439 0.079 0.683 0.462 0.606 0.902-0.069 0.392-0.296 0.677-0.612 0.896-0.533 0.369-1.118 0.477-1.741 0.289-0.356-0.108-0.607-0.342-0.694-0.721-0.043-0.19 0.003-0.361 0.146-0.49 0.17-0.152 0.354-0.288 0.532-0.433l0.057-0.058-0.066-0.046c-0.181-0.086-0.326-0.204-0.383-0.408-0.019-0.069 0.001-0.115 0.059-0.15 0.1-0.060 0.2-0.122 0.298-0.184 0.046-0.029 0.092-0.059 0.136-0.093 0.059-0.045 0.054-0.078-0.017-0.105-0.164-0.061-0.31-0.148-0.423-0.283-0.189-0.225-0.242-0.494-0.227-0.777 0.024-0.442 0.264-0.734 0.655-0.921 0.464-0.223 0.93-0.237 1.403-0.034 0.175 0.075 0.36 0.091 0.547 0.078 0.14-0.010 0.263-0.063 0.372-0.178zM16.040 29.491c-0.348-0.003-0.458 0.040-0.662 0.248-0.229 0.233-0.228 0.557 0.001 0.792 0.174 0.178 0.39 0.261 0.631 0.286 0.281 0.029 0.558 0.017 0.814-0.123 0.273-0.151 0.408-0.431 0.347-0.713-0.051-0.233-0.222-0.339-0.431-0.401-0.238-0.070-0.483-0.083-0.699-0.089zM15.355 27.265c0.013 0.097 0.018 0.195 0.040 0.29 0.056 0.245 0.162 0.461 0.407 0.57 0.287 0.129 0.653 0.073 0.778-0.329 0.086-0.276 0.076-0.549-0.028-0.819-0.046-0.12-0.121-0.221-0.227-0.296-0.249-0.174-0.698-0.197-0.881 0.187-0.059 0.125-0.083 0.258-0.088 0.396z"></path>
<path fill="#4f372b" style="fill: var(--color7, #4f372b)" d="M11.838 26.259c0.009 0.043 0.028 0.091 0.028 0.14 0.001 0.093-0.009 0.186-0.014 0.278v0.081l0.079-0.060c0.215-0.177 0.446-0.328 0.715-0.409 0.486-0.146 0.97 0.119 1.129 0.614 0.060 0.188 0.084 0.381 0.086 0.578 0.005 0.436 0.008 0.873 0.012 1.309 0.002 0.157 0.020 0.185 0.168 0.23 0.084 0.026 0.171 0.044 0.258 0.057 0.048 0.008 0.068 0.026 0.066 0.073l0.001 0.043c-0.002 0.181-0.014 0.189-0.19 0.189-0.419-0.001-0.839 0.002-1.258 0.005-0.125 0.001-0.125 0.005-0.138-0.119l-0.002-0.071c0.008-0.107 0.010-0.105 0.115-0.121 0.070-0.011 0.14-0.027 0.209-0.045 0.071-0.018 0.105-0.070 0.114-0.14 0.005-0.035 0.011-0.071 0.011-0.107-0.006-0.477 0.002-0.954-0.024-1.431-0.021-0.385-0.315-0.615-0.702-0.588-0.19 0.013-0.361 0.076-0.518 0.186-0.103 0.072-0.124 0.177-0.123 0.289 0.002 0.446 0.006 0.892 0.011 1.338 0.001 0.098 0.004 0.195 0.013 0.293 0.010 0.106 0.047 0.149 0.151 0.172 0.1 0.022 0.201 0.035 0.307 0.052l0.009 0.082c0.004 0.191-0.017 0.206-0.202 0.205-0.434-0.002-0.867 0.001-1.301 0.006-0.068 0.001-0.097-0.020-0.095-0.087l-0.001-0.029c-0.011-0.172-0.006-0.179 0.157-0.207l0.077-0.015c0.177-0.040 0.222-0.087 0.224-0.266 0.008-0.568 0.011-1.135 0.017-1.703 0.001-0.081-0.030-0.145-0.106-0.178-0.107-0.047-0.214-0.092-0.322-0.136-0.059-0.024-0.127-0.040-0.13-0.122-0.002-0.058 0.060-0.109 0.145-0.127 0.17-0.035 0.342-0.063 0.51-0.105s0.332-0.098 0.515-0.153z"></path>
<path fill="#4f382b" style="fill: var(--color6, #4f382b)" d="M21.216 27.742c-0.008 0.53-0.146 0.959-0.521 1.281-0.475 0.408-1.216 0.547-1.822 0.242-0.259-0.13-0.448-0.33-0.572-0.589-0.19-0.399-0.237-0.818-0.138-1.247 0.098-0.425 0.355-0.733 0.74-0.932 0.396-0.205 0.813-0.285 1.253-0.177 0.556 0.136 0.956 0.589 1.035 1.167 0.014 0.101 0.020 0.204 0.024 0.256zM20.572 28.030l-0.021-0.003c0-0.050 0.003-0.1-0-0.15-0.018-0.311-0.088-0.608-0.269-0.869-0.171-0.247-0.404-0.393-0.708-0.414-0.34-0.024-0.625 0.166-0.726 0.513-0.151 0.521-0.099 1.029 0.165 1.506 0.115 0.208 0.286 0.361 0.515 0.442 0.448 0.158 0.846-0.047 0.962-0.506 0.043-0.169 0.055-0.347 0.082-0.52z"></path>
<path fill="#4f372b" style="fill: var(--color7, #4f372b)" d="M10.205 27.784c-0.009 0.381-0.099 0.732-0.334 1.038-0.252 0.328-0.598 0.503-0.991 0.576-0.465 0.087-0.902 0.008-1.276-0.304-0.178-0.148-0.299-0.339-0.379-0.555-0.131-0.355-0.164-0.719-0.083-1.090 0.086-0.397 0.31-0.7 0.657-0.904 0.401-0.235 0.835-0.34 1.298-0.234 0.595 0.136 0.938 0.524 1.066 1.111 0.025 0.119 0.029 0.241 0.043 0.361zM9.553 28.035l-0.017-0.003v-0.072c-0.010-0.349-0.078-0.681-0.286-0.971-0.154-0.215-0.361-0.35-0.626-0.388-0.431-0.061-0.713 0.195-0.807 0.542-0.122 0.454-0.084 0.903 0.105 1.334 0.118 0.268 0.304 0.478 0.589 0.579 0.446 0.158 0.849-0.051 0.962-0.509 0.041-0.167 0.054-0.342 0.080-0.513z"></path>
<path fill="#439934" style="fill: var(--color8, #439934)" d="M20.59 8.386c0.307 0.887 0.527 1.792 0.6 2.73 0.090 1.164 0.049 2.32-0.197 3.465l-0.032 0.091c-0.077 0-0.155-0.009-0.231 0.002-0.636 0.1-1.271 0.204-1.906 0.306-0.657 0.107-1.314 0.209-1.97 0.322-0.232 0.040-0.52-0.008-0.613 0.313l-0.045 0.015 0.032-1.919-0.032-4.631 0.306-0.053c0.5-0.082 1-0.165 1.502-0.245 0.598-0.095 1.195-0.187 1.794-0.28 0.264-0.040 0.528-0.078 0.792-0.118z"></path>
<path fill="#45a538" style="fill: var(--color9, #45a538)" d="M15.566 21.228c-0.323-0.277-0.657-0.543-0.966-0.835-1.665-1.57-2.882-3.418-3.482-5.646-0.165-0.613-0.275-1.236-0.311-1.87-0.025-0.444-0.061-0.891-0.029-1.332 0.083-1.173 0.253-2.335 0.597-3.466l0.019-0.026c0.034 0.044 0.082 0.084 0.098 0.134 0.336 0.989 0.669 1.979 1.001 2.97 1.042 3.113 2.083 6.226 3.127 9.338 0.021 0.061 0.073 0.11 0.111 0.165z"></path>
<path fill="#46a037" style="fill: var(--color10, #46a037)" d="M20.59 8.386c-0.264 0.039-0.529 0.077-0.792 0.118-0.598 0.092-1.196 0.185-1.794 0.28-0.501 0.079-1.001 0.163-1.502 0.245l-0.306 0.053-0.003-0.2c-0.010-0.164-0.027-0.328-0.029-0.492l-0.034-3.139c-0.008-0.655-0.020-1.309-0.033-1.964-0.008-0.407-0.017-0.814-0.035-1.22-0.010-0.218-0.045-0.435-0.059-0.654-0.008-0.125 0.003-0.252 0.006-0.378 0.156 0.302 0.309 0.607 0.469 0.907 0.253 0.474 0.657 0.824 1.021 1.205 1.436 1.508 2.456 3.26 3.092 5.239z"></path>
<path fill="#409433" style="fill: var(--color11, #409433)" d="M16.198 15.632l0.045-0.015c0.094-0.321 0.381-0.273 0.613-0.313 0.655-0.114 1.313-0.216 1.97-0.322 0.635-0.103 1.27-0.206 1.906-0.306 0.075-0.012 0.154-0.002 0.231-0.002-0.119 0.424-0.212 0.857-0.363 1.27-0.171 0.467-0.378 0.924-0.598 1.371-0.328 0.669-0.738 1.293-1.213 1.864-0.366 0.441-0.775 0.848-1.184 1.25-0.227 0.222-0.493 0.404-0.741 0.604l-0.064-0.044-0.232-0.198-0.24-0.526c-0.165-0.616-0.252-1.242-0.266-1.879l0.005-0.107 0.033-0.463c0.011-0.158 0.025-0.316 0.032-0.474 0.024-0.569 0.046-1.139 0.068-1.708z"></path>
<path fill="#4faa41" style="fill: var(--color12, #4faa41)" d="M16.198 15.632c-0.023 0.57-0.044 1.139-0.068 1.709-0.007 0.159-0.021 0.317-0.032 0.474l-0.146 0.055c-0.325-0.955-0.649-1.901-0.967-2.848-0.525-1.568-1.044-3.138-1.569-4.706-0.423-1.265-0.85-2.53-1.28-3.794-0.020-0.059-0.078-0.106-0.118-0.158l0.935-1.719c0.032 0.056 0.075 0.108 0.095 0.168 0.432 1.28 0.864 2.56 1.292 3.842 0.557 1.668 1.11 3.336 1.667 5.003 0.022 0.066 0.059 0.128 0.094 0.203l0.128-0.149c-0.011 0.64-0.021 1.28-0.032 1.919z"></path>
<path fill="#4aa73c" style="fill: var(--color13, #4aa73c)" d="M12.019 6.364c0.040 0.052 0.098 0.099 0.118 0.158 0.429 1.264 0.856 2.528 1.28 3.794 0.524 1.568 1.043 3.138 1.569 4.706 0.318 0.947 0.642 1.892 0.967 2.848l0.146-0.055-0.033 0.463-0.030 0.107c-0.051 0.507-0.094 1.015-0.155 1.522-0.031 0.254-0.097 0.503-0.148 0.754-0.038-0.055-0.091-0.105-0.111-0.165-1.044-3.112-2.085-6.226-3.127-9.338-0.332-0.991-0.665-1.981-1.001-2.97-0.017-0.050-0.065-0.090-0.098-0.134z"></path>
<path fill="#57ae47" style="fill: var(--color14, #57ae47)" d="M16.23 13.712l-0.128 0.149c-0.035-0.075-0.072-0.136-0.094-0.203-0.556-1.668-1.11-3.336-1.667-5.004-0.428-1.282-0.86-2.562-1.292-3.842-0.020-0.060-0.063-0.112-0.095-0.168l1.156-1.521c0.037 0.049 0.088 0.092 0.107 0.147 0.321 0.94 0.639 1.881 0.956 2.822 0.296 0.88 0.586 1.76 0.885 2.638 0.020 0.059 0.090 0.1 0.136 0.15l0.003 0.2z"></path>
<path fill="#60b24f" style="fill: var(--color15, #60b24f)" d="M16.195 8.881c-0.047-0.050-0.116-0.091-0.136-0.15-0.299-0.878-0.59-1.758-0.886-2.638-0.316-0.941-0.634-1.882-0.956-2.822-0.019-0.055-0.071-0.098-0.107-0.147 0.376-0.368 0.74-0.75 1.131-1.101 0.348-0.312 0.627-0.647 0.64-1.14l0.027-0.098 0.099 0.25c-0.003 0.126-0.014 0.252-0.006 0.378 0.014 0.218 0.049 0.435 0.059 0.654 0.018 0.406 0.027 0.813 0.035 1.22 0.013 0.655 0.025 1.309 0.033 1.964l0.034 3.139c0.003 0.164 0.020 0.328 0.030 0.492z"></path>
<path fill="#a9aa88" style="fill: var(--color16, #a9aa88)" d="M15.732 20.66c0.050-0.251 0.117-0.5 0.148-0.754 0.062-0.506 0.105-1.015 0.155-1.522l0.013-0.002 0.012 0.002c0.015 0.637 0.101 1.264 0.266 1.879-0.034 0.044-0.081 0.084-0.099 0.134-0.139 0.392-0.27 0.786-0.409 1.177-0.019 0.053-0.072 0.095-0.11 0.142l-0.143-0.49z"></path>
<path fill="#b6b598" style="fill: var(--color17, #b6b598)" d="M15.709 21.718c0.037-0.047 0.091-0.088 0.11-0.142 0.139-0.391 0.27-0.786 0.409-1.177 0.018-0.050 0.065-0.089 0.099-0.134l0.24 0.526c-0.047 0.067-0.113 0.128-0.139 0.203l-0.459 1.348c-0.019 0.054-0.083 0.092-0.127 0.138z"></path>
<path fill="#c2c1a7" style="fill: var(--color18, #c2c1a7)" d="M15.842 22.479c0.043-0.046 0.108-0.084 0.127-0.138l0.459-1.348c0.026-0.075 0.092-0.136 0.139-0.203l0.232 0.198c-0.112 0.111-0.174 0.239-0.137 0.401l-0.070 0.231c-0.032 0.040-0.078 0.074-0.094 0.119-0.16 0.459-0.313 0.921-0.474 1.379-0.020 0.058-0.077 0.104-0.117 0.155z"></path>
<path fill="#cecdb7" style="fill: var(--color19, #cecdb7)" d="M15.905 23.273c0.040-0.052 0.097-0.097 0.117-0.155 0.162-0.459 0.314-0.92 0.474-1.379 0.016-0.045 0.062-0.079 0.094-0.119l-0.097 1.059c-0.026 0.030-0.064 0.056-0.076 0.091l-0.323 0.927c-0.023 0.063-0.066 0.12-0.1 0.179-0.030-0.040-0.084-0.078-0.087-0.119-0.009-0.16-0.003-0.322-0.002-0.483z"></path>
<path fill="#dbdac7" style="fill: var(--color20, #dbdac7)" d="M15.994 23.875c0.034-0.059 0.077-0.116 0.1-0.179l0.323-0.927c0.012-0.035 0.050-0.061 0.076-0.091l0.003 0.695-0.233 0.597z"></path>
<path fill="#ebe9dc" style="fill: var(--color21, #ebe9dc)" d="M16.264 23.97l0.233-0.597 0.048 0.706z"></path>
<path fill="#cecdb7" style="fill: var(--color19, #cecdb7)" d="M16.662 21.389c-0.037-0.162 0.025-0.29 0.137-0.401l0.064 0.044z"></path>
<path fill="#4faa41" style="fill: var(--color12, #4faa41)" d="M16.061 18.386l-0.012-0.002-0.013 0.002 0.030-0.107z"></path>
</symbol>
<symbol id="icon-nodejs" viewBox="0 0 52 32">
<path fill="#539e43" style="fill: var(--color1, #539e43)" d="M25.795 31.908c-0.177 0-0.342-0.047-0.495-0.13l-1.567-0.93c-0.236-0.13-0.118-0.177-0.047-0.2 0.318-0.106 0.377-0.13 0.707-0.318 0.035-0.024 0.082-0.012 0.118 0.012l1.201 0.718c0.047 0.024 0.106 0.024 0.141 0l4.7-2.721c0.047-0.024 0.071-0.071 0.071-0.13v-5.43c0-0.059-0.024-0.106-0.071-0.13l-4.7-2.709c-0.047-0.024-0.106-0.024-0.141 0l-4.7 2.709c-0.047 0.024-0.071 0.082-0.071 0.13v5.43c0 0.047 0.024 0.106 0.071 0.13l1.284 0.742c0.695 0.353 1.131-0.059 1.131-0.471v-5.359c0-0.071 0.059-0.141 0.141-0.141h0.601c0.071 0 0.141 0.059 0.141 0.141v5.359c0 0.93-0.506 1.472-1.39 1.472-0.271 0-0.483 0-1.084-0.294l-1.237-0.707c-0.306-0.177-0.495-0.506-0.495-0.86v-5.43c0-0.353 0.188-0.683 0.495-0.86l4.7-2.721c0.294-0.165 0.695-0.165 0.989 0l4.7 2.721c0.306 0.177 0.495 0.506 0.495 0.86v5.43c0 0.353-0.188 0.683-0.495 0.86l-4.7 2.721c-0.153 0.071-0.33 0.106-0.495 0.106zM27.243 28.174c-2.061 0-2.485-0.942-2.485-1.743 0-0.071 0.059-0.141 0.141-0.141h0.612c0.071 0 0.13 0.047 0.13 0.118 0.094 0.624 0.365 0.93 1.614 0.93 0.989 0 1.413-0.224 1.413-0.754 0-0.306-0.118-0.53-1.661-0.683-1.284-0.13-2.085-0.412-2.085-1.437 0-0.954 0.801-1.519 2.144-1.519 1.508 0 2.25 0.518 2.344 1.649 0 0.035-0.012 0.071-0.035 0.106-0.024 0.024-0.059 0.047-0.094 0.047h-0.612c-0.059 0-0.118-0.047-0.13-0.106-0.141-0.648-0.506-0.86-1.472-0.86-1.084 0-1.213 0.377-1.213 0.66 0 0.342 0.153 0.448 1.614 0.636 1.449 0.188 2.132 0.459 2.132 1.472-0.012 1.037-0.86 1.625-2.356 1.625z"></path>
<path fill="#333" style="fill: var(--color2, #333)" d="M11.213 10.671c0-0.212-0.118-0.412-0.306-0.518l-4.994-2.874c-0.082-0.047-0.177-0.071-0.271-0.082h-0.047c-0.094 0-0.188 0.035-0.271 0.082l-4.994 2.874c-0.188 0.106-0.306 0.306-0.306 0.518l0.012 7.727c0 0.106 0.059 0.212 0.153 0.259 0.094 0.059 0.212 0.059 0.294 0l2.968-1.696c0.188-0.106 0.306-0.306 0.306-0.518v-3.616c0-0.212 0.118-0.412 0.306-0.518l1.26-0.73c0.094-0.059 0.2-0.082 0.306-0.082s0.212 0.024 0.294 0.082l1.26 0.73c0.188 0.106 0.306 0.306 0.306 0.518v3.616c0 0.212 0.118 0.412 0.306 0.518l2.968 1.696c0.094 0.059 0.212 0.059 0.306 0 0.094-0.047 0.153-0.153 0.153-0.259l-0.012-7.727z"></path>
<path fill="#333" style="fill: var(--color2, #333)" d="M35.217 0.035c-0.094-0.047-0.212-0.047-0.294 0-0.094 0.059-0.153 0.153-0.153 0.259v7.656c0 0.071-0.035 0.141-0.106 0.188-0.071 0.035-0.141 0.035-0.212 0l-1.248-0.718c-0.188-0.106-0.412-0.106-0.601 0l-4.994 2.886c-0.188 0.106-0.306 0.306-0.306 0.518v5.76c0 0.212 0.118 0.412 0.306 0.518l4.994 2.886c0.188 0.106 0.412 0.106 0.601 0l4.994-2.886c0.188-0.106 0.306-0.306 0.306-0.518v-14.358c0-0.224-0.118-0.424-0.306-0.53l-2.98-1.661zM34.758 14.688c0 0.059-0.024 0.106-0.071 0.13l-1.708 0.989c-0.047 0.024-0.106 0.024-0.153 0l-1.708-0.989c-0.047-0.024-0.071-0.082-0.071-0.13v-1.979c0-0.059 0.024-0.106 0.071-0.13l1.708-0.989c0.047-0.024 0.106-0.024 0.153 0l1.708 0.989c0.047 0.024 0.071 0.082 0.071 0.13v1.979z"></path>
<path fill="#333" style="fill: var(--color2, #333)" d="M51.837 12.662c0.188-0.106 0.294-0.306 0.294-0.518v-1.402c0-0.212-0.118-0.412-0.294-0.518l-4.959-2.874c-0.188-0.106-0.412-0.106-0.601 0l-4.994 2.886c-0.188 0.106-0.306 0.306-0.306 0.518v5.76c0 0.212 0.118 0.412 0.306 0.518l4.959 2.827c0.188 0.106 0.412 0.106 0.589 0l3.004-1.673c0.094-0.047 0.153-0.153 0.153-0.259s-0.059-0.212-0.153-0.259l-5.018-2.886c-0.094-0.059-0.153-0.153-0.153-0.259v-1.802c0-0.106 0.059-0.212 0.153-0.259l1.567-0.895c0.094-0.059 0.212-0.059 0.306 0l1.567 0.895c0.094 0.059 0.153 0.153 0.153 0.259v1.413c0 0.106 0.059 0.212 0.153 0.259 0.094 0.059 0.212 0.059 0.306 0l2.968-1.731z"></path>
<path fill="#539e43" style="fill: var(--color1, #539e43)" d="M46.501 12.391c0.035-0.024 0.082-0.024 0.118 0l0.954 0.554c0.035 0.024 0.059 0.059 0.059 0.106v1.107c0 0.047-0.024 0.082-0.059 0.106l-0.954 0.554c-0.035 0.024-0.082 0.024-0.118 0l-0.954-0.554c-0.035-0.024-0.059-0.059-0.059-0.106v-1.107c0-0.047 0.024-0.082 0.059-0.106l0.954-0.554z"></path>
<path fill="#000" style="fill: var(--color3, #000)" d="M19.564 7.373c-0.188-0.106-0.412-0.106-0.601 0l-4.959 2.862c-0.188 0.106-0.294 0.306-0.294 0.518v5.736c0 0.212 0.118 0.412 0.294 0.518l4.959 2.862c0.188 0.106 0.412 0.106 0.601 0l4.959-2.862c0.188-0.106 0.294-0.306 0.294-0.518v-5.736c0-0.212-0.118-0.412-0.294-0.518l-4.959-2.862z"></path>
<path fill="#000" style="fill: var(--color3, #000)" d="M24.534 10.235l-4.982-2.862c-0.047-0.024-0.106-0.047-0.153-0.059l-5.583 9.564c0.047 0.059 0.106 0.106 0.165 0.141l4.982 2.862c0.141 0.082 0.306 0.106 0.459 0.059l5.241-9.588c-0.035-0.047-0.082-0.082-0.13-0.118v0z"></path>
<path fill="#000" style="fill: var(--color3, #000)" d="M18.798 6.325l-0.071 0.035h0.094l-0.024-0.035z"></path>
<path fill="#000" style="fill: var(--color3, #000)" d="M24.546 17.008c0.141-0.082 0.247-0.224 0.294-0.377l-5.465-9.329c-0.141-0.024-0.294-0.012-0.424 0.071l-4.947 2.85 5.336 9.729c0.071-0.012 0.153-0.035 0.224-0.071l4.982-2.874z"></path>
<path fill="#000" style="fill: var(--color3, #000)" d="M25.006 16.914l-0.035-0.059v0.082l0.035-0.024z"></path>
<path fill="#000" style="fill: var(--color3, #000)" d="M24.546 17.008l-4.971 2.862c-0.071 0.035-0.141 0.059-0.224 0.071l0.094 0.177 5.512-3.192v-0.071l-0.141-0.236c-0.024 0.165-0.13 0.306-0.271 0.389v0z"></path>
<path fill="#000" style="fill: var(--color3, #000)" d="M24.546 17.008l-4.971 2.862c-0.071 0.035-0.141 0.059-0.224 0.071l0.094 0.177 5.512-3.192v-0.071l-0.141-0.236c-0.024 0.165-0.13 0.306-0.271 0.389v0z"></path>
</symbol>
<symbol id="icon-node-js" viewBox="0 0 28 32">
<path fill="#539e43" style="fill: var(--color1, #539e43)" d="M14.173 31.941c-0.44 0-0.851-0.117-1.232-0.323l-3.903-2.318c-0.587-0.323-0.293-0.44-0.117-0.499 0.792-0.264 0.939-0.323 1.761-0.792 0.088-0.059 0.205-0.029 0.293 0.029l2.993 1.79c0.117 0.059 0.264 0.059 0.352 0l11.708-6.778c0.117-0.059 0.176-0.176 0.176-0.323v-13.527c0-0.147-0.059-0.264-0.176-0.323l-11.708-6.749c-0.117-0.059-0.264-0.059-0.352 0l-11.708 6.749c-0.117 0.059-0.176 0.205-0.176 0.323v13.527c0 0.117 0.059 0.264 0.176 0.323l3.198 1.849c1.731 0.88 2.817-0.147 2.817-1.174v-13.351c0-0.176 0.147-0.352 0.352-0.352h1.497c0.176 0 0.352 0.147 0.352 0.352v13.351c0 2.318-1.262 3.668-3.463 3.668-0.675 0-1.203 0-2.7-0.734l-3.081-1.761c-0.763-0.44-1.232-1.262-1.232-2.142v-13.527c0-0.88 0.469-1.702 1.232-2.142l11.708-6.778c0.734-0.411 1.731-0.411 2.465 0l11.708 6.778c0.763 0.44 1.232 1.262 1.232 2.142v13.527c0 0.88-0.47 1.702-1.232 2.142l-11.708 6.778c-0.381 0.176-0.822 0.264-1.232 0.264zM17.782 22.639c-5.135 0-6.192-2.348-6.192-4.343 0-0.176 0.147-0.352 0.352-0.352h1.526c0.176 0 0.323 0.117 0.323 0.293 0.235 1.555 0.91 2.318 4.020 2.318 2.465 0 3.521-0.558 3.521-1.878 0-0.763-0.293-1.32-4.137-1.702-3.198-0.323-5.194-1.027-5.194-3.58 0-2.377 1.995-3.785 5.341-3.785 3.756 0 5.605 1.291 5.839 4.108 0 0.088-0.029 0.176-0.088 0.264-0.059 0.059-0.147 0.117-0.235 0.117h-1.526c-0.147 0-0.293-0.117-0.323-0.264-0.352-1.614-1.262-2.142-3.668-2.142-2.7 0-3.022 0.939-3.022 1.643 0 0.851 0.381 1.115 4.020 1.585 3.609 0.47 5.311 1.144 5.311 3.668-0.029 2.582-2.142 4.049-5.869 4.049z"></path>
</symbol>
<symbol id="icon-material-ui" viewBox="0 0 40 32">
<path fill="#00b0ff" style="fill: var(--color1, #00b0ff)" d="M0 17.388v-17.388l15.059 8.694v5.796l-10.039-5.796v11.592z"></path>
<path fill="#0081cb" style="fill: var(--color2, #0081cb)" d="M15.059 8.694l15.059-8.694v17.388l-10.039 5.796-5.020-2.898 10.039-5.796v-5.796l-10.039 5.796z"></path>
<path fill="#00b0ff" style="fill: var(--color1, #00b0ff)" d="M15.059 20.286v5.796l10.039 5.796v-5.796z"></path>
<path fill="#0081cb" style="fill: var(--color2, #0081cb)" d="M25.098 31.878l15.059-8.694v-11.592l-5.020 2.898v5.796l-10.039 5.796zM35.137 8.694v-5.796l5.020-2.898v5.796z"></path>
</symbol>
<symbol id="icon-axios" viewBox="0 0 40 32">
<path fill="#5a29e4" style="fill: var(--color1, #5a29e4)" d="M19.884 14.269l-1.169 0.95h0.762v3.091l0.406-0.325v-3.716z"></path>
<path fill="#5a29e4" style="fill: var(--color1, #5a29e4)" d="M20.219 17.706l1.188-0.975h-0.781v-3.022l-0.403 0.281v3.716z"></path>
<path fill="#5a29e4" style="fill: var(--color1, #5a29e4)" d="M34.922 14.822c0.134 0.069 0.231 0.128 0.291 0.178l0.419-0.8c-0.209-0.128-0.462-0.244-0.759-0.347-0.291-0.103-0.606-0.153-0.944-0.153-0.322 0-0.622 0.053-0.897 0.162-0.269 0.106-0.484 0.266-0.647 0.475-0.156 0.209-0.234 0.472-0.234 0.784 0 0.35 0.109 0.619 0.331 0.806 0.225 0.184 0.572 0.334 1.034 0.453 0.372 0.097 0.669 0.184 0.897 0.266 0.231 0.075 0.347 0.203 0.347 0.378 0 0.262-0.247 0.397-0.744 0.397-0.247 0-0.481-0.028-0.703-0.087s-0.416-0.131-0.581-0.219c-0.163-0.087-0.278-0.166-0.347-0.234l-0.438 0.847c0.281 0.178 0.6 0.319 0.962 0.419 0.359 0.103 0.725 0.153 1.091 0.153 0.319 0 0.612-0.044 0.888-0.128 0.275-0.091 0.494-0.238 0.663-0.438 0.172-0.203 0.259-0.475 0.259-0.806 0-0.275-0.066-0.494-0.194-0.663-0.125-0.172-0.303-0.309-0.541-0.412-0.231-0.103-0.506-0.194-0.825-0.275-0.359-0.088-0.634-0.166-0.825-0.234-0.184-0.069-0.275-0.188-0.275-0.356 0-0.284 0.253-0.428 0.759-0.428 0.188 0 0.372 0.028 0.55 0.081 0.181 0.053 0.334 0.113 0.462 0.181z"></path>
<path fill="#5a29e4" style="fill: var(--color1, #5a29e4)" d="M26.425 18.278c-0.356 0-0.678-0.063-0.969-0.184-0.291-0.128-0.541-0.3-0.75-0.516-0.209-0.222-0.372-0.469-0.484-0.744s-0.169-0.556-0.169-0.847c0-0.297 0.059-0.581 0.178-0.856s0.284-0.516 0.5-0.728c0.216-0.216 0.469-0.384 0.759-0.509s0.609-0.184 0.953-0.184c0.356 0 0.678 0.069 0.969 0.203 0.291 0.128 0.538 0.303 0.744 0.525 0.209 0.216 0.372 0.459 0.484 0.734s0.169 0.553 0.169 0.841c0 0.297-0.059 0.581-0.178 0.856-0.119 0.269-0.284 0.512-0.5 0.728-0.209 0.209-0.459 0.378-0.75 0.5-0.294 0.119-0.613 0.181-0.956 0.181zM25.038 15.994c0 0.244 0.056 0.475 0.169 0.694 0.113 0.216 0.272 0.391 0.475 0.525 0.209 0.134 0.459 0.203 0.75 0.203 0.297 0 0.547-0.069 0.75-0.209 0.206-0.147 0.359-0.325 0.469-0.541 0.106-0.222 0.163-0.447 0.163-0.678 0-0.244-0.056-0.472-0.169-0.688s-0.275-0.387-0.484-0.516c-0.203-0.134-0.45-0.203-0.734-0.203-0.297 0-0.55 0.069-0.759 0.209-0.203 0.141-0.359 0.319-0.469 0.534-0.106 0.213-0.159 0.438-0.159 0.669z"></path>
<path fill="#5a29e4" style="fill: var(--color1, #5a29e4)" d="M4.188 18.247l1.972-4.516h0.8l1.963 4.516h-1.034l-0.453-1.059h-1.753l-0.453 1.059h-1.041zM6.563 14.919l-0.662 1.422h1.3l-0.638-1.422z"></path>
<path fill="#5a29e4" style="fill: var(--color1, #5a29e4)" d="M12.738 13.731l1.244 1.6 1.244-1.6h1.056l-1.784 2.284 1.728 2.228h-1.059l-1.188-1.534-1.178 1.534h-1.075l1.738-2.228-1.794-2.284h1.069z"></path>
</symbol>
<symbol id="icon-css3" viewBox="0 0 32 32">
<path fill="#131313" style="fill: var(--color1, #131313)" d="M22.308 1.464h-1.846l1.92 2.083v0.992h-3.954v-1.161h1.919l-1.919-2.083v-0.993h3.88v1.162zM17.644 1.464h-1.846l1.92 2.083v0.992h-3.954v-1.161h1.92l-1.92-2.083v-0.993h3.88v1.162zM13.026 1.512h-1.992v1.818h1.992v1.21h-3.408v-4.237h3.408v1.21z"></path>
<path fill="#1572b6" style="fill: var(--color2, #1572b6)" d="M6.903 29.177l-2.024-22.703h22.242l-2.026 22.7-9.108 2.526-9.083-2.522z"></path>
<path fill="#33a9dc" style="fill: var(--color3, #33a9dc)" d="M16 29.768l7.36-2.041 1.732-19.398h-9.091v21.438z"></path>
<path fill="#fff" style="fill: var(--color4, #fff)" d="M16 16.555h3.684l0.255-2.851h-3.939v-2.784h6.982l-0.067 0.747-0.684 7.673h-6.231v-2.784z"></path>
<path fill="#ebebeb" style="fill: var(--color5, #ebebeb)" d="M16.017 23.787l-0.012 0.003-3.101-0.837-0.198-2.221h-2.795l0.39 4.372 5.704 1.583 0.013-0.004v-2.897z"></path>
<path fill="#fff" style="fill: var(--color4, #fff)" d="M19.448 19.221l-0.335 3.729-3.105 0.838v2.897l5.708-1.582 0.042-0.471 0.485-5.412h-2.794z"></path>
<path fill="#ebebeb" style="fill: var(--color5, #ebebeb)" d="M16.010 10.919v2.784h-6.726l-0.056-0.626-0.127-1.412-0.067-0.747h6.975zM16 16.555v2.785h-3.062l-0.056-0.626-0.127-1.412-0.067-0.747h3.311z"></path>
</symbol>
<symbol id="icon-jwt" viewBox="0 0 32 32">
<path fill="#fff" style="fill: var(--color1, #fff)" d="M18.352 8.6l-0.032-8.6h-4.796l0.032 8.6 2.398 3.293z"></path>
<path fill="#fff" style="fill: var(--color1, #fff)" d="M13.556 23.339v8.632h4.796v-8.632l-2.398-3.293z"></path>
<path fill="#00f2e6" style="fill: var(--color2, #00f2e6)" d="M18.352 23.339l5.051 6.97 3.869-2.813-5.051-6.97-3.869-1.247z"></path>
<path fill="#00f2e6" style="fill: var(--color2, #00f2e6)" d="M13.556 8.6l-5.083-6.97-3.869 2.813 5.051 6.97 3.9 1.247z"></path>
<path fill="#00b9f1" style="fill: var(--color3, #00b9f1)" d="M9.655 11.414l-8.185-2.654-1.471 4.54 8.185 2.686 3.869-1.279z"></path>
<path fill="#00b9f1" style="fill: var(--color3, #00b9f1)" d="M19.822 17.233l2.398 3.293 8.185 2.654 1.471-4.54-8.185-2.654z"></path>
<path fill="#d63aff" style="fill: var(--color4, #d63aff)" d="M23.691 15.986l8.185-2.686-1.471-4.54-8.185 2.654-2.398 3.293z"></path>
<path fill="#d63aff" style="fill: var(--color4, #d63aff)" d="M8.185 15.986l-8.185 2.654 1.471 4.54 8.185-2.654 2.398-3.293z"></path>
<path fill="#fb015b" style="fill: var(--color5, #fb015b)" d="M9.655 20.526l-5.051 6.97 3.869 2.813 5.083-6.97v-4.060z"></path>
<path fill="#fb015b" style="fill: var(--color5, #fb015b)" d="M22.22 11.414l5.051-6.97-3.869-2.813-5.051 6.97v4.060z"></path>
</symbol>
<symbol id="icon-hash" viewBox="0 0 32 32">
<path d="M5.337 31.551h6.556l0.386-6.782h6.444l-0.386 6.782h6.556l0.386-6.782h6.722v-6.545h-6.349l0.253-4.448h6.096v-6.545h-5.723l0.386-6.782h-6.556l-0.386 6.782h-6.444l0.386-6.782h-6.555l-0.386 6.782h-6.722v6.545h6.349l-0.253 4.448h-6.096v6.545h5.723l-0.386 6.782zM12.905 13.776h6.444l-0.253 4.448h-6.444l0.253-4.448z"></path>
</symbol>
</defs>
</svg>
